<?xml version="1.0" standalone="no"?>
<!DOCTYPE svg PUBLIC "-//W3C//DTD SVG 20010904//EN"
 "http://www.w3.org/TR/2001/REC-SVG-20010904/DTD/svg10.dtd">
<svg version="1.0" xmlns="http://www.w3.org/2000/svg"
 width="1024.000000pt" height="1024.000000pt" viewBox="0 0 1024.000000 1024.000000"
 preserveAspectRatio="xMidYMid meet">
<metadata>
Created by potrace 1.14, written by Peter Selinger 2001-2017
</metadata>
<g transform="translate(0.000000,1024.000000) scale(0.100000,-0.100000)"
fill="#000000" stroke="none">
<path d="M4820 9374 c-19 -2 -87 -9 -150 -15 -364 -34 -852 -158 -1195 -304
-1337 -567 -2288 -1748 -2549 -3165 -51 -278 -61 -400 -61 -770 0 -370 10
-491 61 -770 240 -1306 1074 -2422 2264 -3032 435 -223 915 -367 1445 -435
201 -26 768 -25 975 0 993 124 1853 545 2547 1248 665 674 1068 1505 1195
2467 30 228 33 787 5 1012 -122 979 -539 1839 -1223 2524 -681 681 -1546 1101
-2514 1221 -127 16 -706 30 -800 19z m484 -844 c856 -50 1630 -396 2230 -996
1299 -1302 1339 -3393 90 -4735 -949 -1020 -2401 -1363 -3704 -877 -717 268
-1333 783 -1732 1448 -746 1243 -619 2827 316 3945 596 713 1483 1161 2406
1214 197 12 209 12 394 1z"/>
<path d="M6314 7165 c-34 -17 -114 -90 -269 -245 l-220 -220 438 -437 437
-438 220 220 c242 241 270 280 270 370 0 94 -24 125 -342 442 -214 213 -305
297 -338 312 -63 29 -134 27 -196 -4z"/>
<path d="M4277 5152 l-1287 -1287 0 -438 0 -437 438 0 437 0 1288 1288 c708
708 1287 1292 1287 1297 0 13 -852 865 -865 865 -6 0 -589 -579 -1298 -1288z"/>
</g>
</svg>
