<?xml version="1.0" standalone="no"?>
<!DOCTYPE svg PUBLIC "-//W3C//DTD SVG 20010904//EN"
 "http://www.w3.org/TR/2001/REC-SVG-20010904/DTD/svg10.dtd">
<svg version="1.0" xmlns="http://www.w3.org/2000/svg"
 width="1024.000000pt" height="1024.000000pt" viewBox="0 0 1024.000000 1024.000000"
 preserveAspectRatio="xMidYMid meet">
<metadata>
Created by potrace 1.14, written by Peter Selinger 2001-2017
</metadata>
<g transform="translate(0.000000,1024.000000) scale(0.100000,-0.100000)"
fill="#000000" stroke="none">
<path d="M7088 8579 c-64 -9 -172 -49 -233 -87 -22 -13 -473 -457 -1003 -986
l-962 -961 902 -902 903 -903 938 937 c516 516 954 959 972 984 87 117 125
236 125 392 0 124 -26 223 -86 324 -52 87 -1026 1061 -1116 1115 -138 85 -274
111 -440 87z"/>
<path d="M3584 5238 c-963 -964 -993 -995 -1028 -1068 -56 -116 -69 -185 -63
-320 4 -91 10 -129 30 -182 33 -85 67 -144 118 -202 l40 -45 -593 -591 -592
-590 904 0 905 0 135 135 c74 74 139 135 143 135 5 0 28 -16 50 -36 58 -49
169 -101 252 -119 149 -31 296 -12 435 56 l85 42 987 986 987 986 -897 903
c-493 497 -899 903 -902 902 -3 0 -451 -447 -996 -992z"/>
</g>
</svg>
